<svg version="1.1" id="Layer_1" xmlns="http://www.w3.org/2000/svg" xmlns:xlink="http://www.w3.org/1999/xlink" x="0px" y="0px"
	 width="100%" viewBox="0 0 262 226" enable-background="new 0 0 262 226" xml:space="preserve">
<path fill="#FEFEFE" opacity="1.000000" stroke="none" 
	d="
M187.000000,227.000000 
	C124.666679,227.000000 62.833355,227.000000 1.000025,227.000000 
	C1.000017,151.666687 1.000017,76.333382 1.000008,1.000055 
	C88.333290,1.000037 175.666580,1.000037 262.999908,1.000018 
	C262.999939,76.333275 262.999939,151.666550 262.999969,226.999908 
	C237.833328,227.000000 212.666672,227.000000 187.000000,227.000000 
M156.860199,138.082474 
	C162.984039,137.782593 169.106918,137.460327 175.232132,137.191940 
	C178.462280,137.050446 179.669876,138.957413 179.694687,141.883682 
	C179.725372,145.501205 179.702042,149.119186 179.702042,153.167267 
	C182.563431,153.167267 185.018021,153.125381 187.470749,153.175018 
	C195.235901,153.332184 195.275909,153.312836 195.274704,145.580215 
	C195.269348,111.292107 195.258987,77.003990 195.252563,42.715881 
	C195.251633,37.722496 195.190903,32.727673 195.291580,27.736212 
	C195.364273,24.131739 193.793335,22.684731 190.172043,22.788647 
	C184.184891,22.960453 178.189117,22.817804 172.197098,22.838251 
	C166.072540,22.859150 165.843307,23.068300 165.832367,29.420410 
	C165.805115,45.232849 165.834656,61.045383 165.813324,76.857841 
	C165.799744,86.925133 165.470276,86.401497 174.912933,86.128021 
	C179.310471,86.000656 181.455887,87.965675 181.567032,92.244484 
	C181.662018,95.901909 181.796234,99.569473 181.633163,103.220055 
	C181.321121,110.206177 180.627106,110.810310 173.666504,110.826935 
	C163.564545,110.851067 153.462479,110.833122 142.533142,110.833122 
	C146.475418,117.940475 150.162857,124.363037 153.601257,130.916260 
	C154.722946,133.054092 155.195633,135.532455 155.120743,137.898193 
	C146.377838,137.923615 137.536667,137.179001 128.930634,138.277084 
	C124.135551,138.888916 119.801704,142.722931 115.133217,144.822968 
	C109.787415,147.227707 107.015358,147.262177 107.164215,140.213226 
	C107.484154,125.063339 107.228798,109.901093 107.191254,94.743942 
	C107.171730,86.859283 107.822319,86.006744 115.511963,86.059685 
	C119.830566,86.089409 122.133652,84.540298 122.162979,80.044495 
	C122.169853,78.990082 122.633736,77.938652 123.127243,75.890137 
	C124.820610,78.896568 125.834618,81.178177 127.299965,83.119026 
	C128.187790,84.294952 129.753677,85.672958 131.050461,85.709824 
	C139.276260,85.943657 147.511963,85.828621 156.097961,85.828621 
	C155.751511,84.792038 155.636581,84.141853 155.336075,83.593346 
	C144.726913,64.228561 134.165741,44.836552 123.345345,25.590309 
	C122.527557,24.135721 119.884109,23.054924 118.027878,22.956280 
	C111.882370,22.629690 105.708687,22.819056 99.545883,22.836241 
	C93.284996,22.853699 92.678261,23.460178 92.681549,29.686266 
	C92.701767,67.995659 92.722672,106.305054 92.756653,144.614441 
	C92.764297,153.237930 92.840530,153.456085 101.251823,153.168915 
	C104.954315,153.042511 106.503517,154.619568 106.767616,157.958984 
	C106.911636,159.780060 106.846169,161.620132 106.828217,163.451172 
	C106.678055,178.771210 106.555298,194.091675 106.336349,209.410767 
	C106.268738,214.141846 108.260696,215.808212 113.051315,215.453705 
	C118.845177,215.024948 124.713707,215.094406 130.516678,215.466660 
	C134.894470,215.747498 136.480698,214.310638 136.391922,209.899429 
	C136.130539,196.911392 136.151901,183.917435 136.093277,170.925659 
	C136.063629,164.356049 137.277252,163.200592 143.996643,163.166901 
	C154.156586,163.115997 164.316483,163.053116 174.476440,163.003098 
	C176.856613,162.991394 179.313080,163.097946 178.917465,160.753464 
	C175.513229,159.447006 171.595779,159.192276 170.487320,157.295761 
	C166.329025,150.181091 157.149780,146.889816 156.860199,138.082474 
z"/>
<path fill="#010101" opacity="1.000000" stroke="none" 
	d="
M155.829727,137.777313 
	C157.149780,146.889816 166.329025,150.181091 170.487320,157.295761 
	C171.595779,159.192276 175.513229,159.447006 178.917465,160.753464 
	C179.313080,163.097946 176.856613,162.991394 174.476440,163.003098 
	C164.316483,163.053116 154.156586,163.115997 143.996643,163.166901 
	C137.277252,163.200592 136.063629,164.356049 136.093277,170.925659 
	C136.151901,183.917435 136.130539,196.911392 136.391922,209.899429 
	C136.480698,214.310638 134.894470,215.747498 130.516678,215.466660 
	C124.713707,215.094406 118.845177,215.024948 113.051315,215.453705 
	C108.260696,215.808212 106.268738,214.141846 106.336349,209.410767 
	C106.555298,194.091675 106.678055,178.771210 106.828217,163.451172 
	C106.846169,161.620132 106.911636,159.780060 106.767616,157.958984 
	C106.503517,154.619568 104.954315,153.042511 101.251823,153.168915 
	C92.840530,153.456085 92.764297,153.237930 92.756653,144.614441 
	C92.722672,106.305054 92.701767,67.995659 92.681549,29.686266 
	C92.678261,23.460178 93.284996,22.853699 99.545883,22.836241 
	C105.708687,22.819056 111.882370,22.629690 118.027878,22.956280 
	C119.884109,23.054924 122.527557,24.135721 123.345345,25.590309 
	C134.165741,44.836552 144.726913,64.228561 155.336075,83.593346 
	C155.636581,84.141853 155.751511,84.792038 156.097961,85.828621 
	C147.511963,85.828621 139.276260,85.943657 131.050461,85.709824 
	C129.753677,85.672958 128.187790,84.294952 127.299965,83.119026 
	C125.834618,81.178177 124.820610,78.896568 123.127243,75.890137 
	C122.633736,77.938652 122.169853,78.990082 122.162979,80.044495 
	C122.133652,84.540298 119.830566,86.089409 115.511963,86.059685 
	C107.822319,86.006744 107.171730,86.859283 107.191254,94.743942 
	C107.228798,109.901093 107.484154,125.063339 107.164215,140.213226 
	C107.015358,147.262177 109.787415,147.227707 115.133217,144.822968 
	C119.801704,142.722931 124.135551,138.888916 128.930634,138.277084 
	C137.536667,137.179001 146.377838,137.923615 155.520538,137.854202 
	C155.920319,137.810211 155.829727,137.777313 155.829727,137.777313 
z"/>
<path fill="#010101" opacity="1.000000" stroke="none" 
	d="
M156.344971,137.929901 
	C155.829727,137.777313 155.920319,137.810211 155.942719,137.832642 
	C155.195633,135.532455 154.722946,133.054092 153.601257,130.916260 
	C150.162857,124.363037 146.475418,117.940475 142.533142,110.833122 
	C153.462479,110.833122 163.564545,110.851067 173.666504,110.826935 
	C180.627106,110.810310 181.321121,110.206177 181.633163,103.220055 
	C181.796234,99.569473 181.662018,95.901909 181.567032,92.244484 
	C181.455887,87.965675 179.310471,86.000656 174.912933,86.128021 
	C165.470276,86.401497 165.799744,86.925133 165.813324,76.857841 
	C165.834656,61.045383 165.805115,45.232849 165.832367,29.420410 
	C165.843307,23.068300 166.072540,22.859150 172.197098,22.838251 
	C178.189117,22.817804 184.184891,22.960453 190.172043,22.788647 
	C193.793335,22.684731 195.364273,24.131739 195.291580,27.736212 
	C195.190903,32.727673 195.251633,37.722496 195.252563,42.715881 
	C195.258987,77.003990 195.269348,111.292107 195.274704,145.580215 
	C195.275909,153.312836 195.235901,153.332184 187.470749,153.175018 
	C185.018021,153.125381 182.563431,153.167267 179.702042,153.167267 
	C179.702042,149.119186 179.725372,145.501205 179.694687,141.883682 
	C179.669876,138.957413 178.462280,137.050446 175.232132,137.191940 
	C169.106918,137.460327 162.984039,137.782593 156.344971,137.929901 
z"/>
</svg>