<svg version="1.1" id="Layer_1" xmlns="http://www.w3.org/2000/svg" xmlns:xlink="http://www.w3.org/1999/xlink" x="0px" y="0px"
	 width="100%" viewBox="0 0 496 496" enable-background="new 0 0 496 496" xml:space="preserve">
<rect x="0" y="0" width="100%" height="100%" fill="white" />

<path fill="#000000" opacity="1.000000" stroke="none" 
	d="
M264.006104,264.005188 
	C263.275665,268.311218 265.103363,271.335999 268.585114,273.731445 
	C271.192383,275.525269 273.719940,277.565125 275.224365,280.417542 
	C277.651154,285.018707 281.010468,287.182129 286.324890,284.939972 
	C285.610901,288.721191 285.615417,288.934967 281.544495,289.021088 
	C270.885895,289.246521 260.215179,289.546051 249.565018,289.249786 
	C244.369095,289.105225 243.023819,290.908051 243.139984,295.850250 
	C243.460938,309.505371 243.219849,323.172852 243.413864,336.832397 
	C243.461044,340.153137 242.854095,341.703827 239.065552,341.540619 
	C232.080582,341.239807 225.072418,341.334106 218.077682,341.464783 
	C214.773056,341.526489 213.625671,340.617004 213.469742,336.950104 
	C212.732864,319.619568 213.831421,302.312958 213.804520,284.995605 
	C213.797699,280.614258 212.549088,278.729614 208.146545,279.374237 
	C207.983459,279.398132 207.813766,279.377747 207.647156,279.376648 
	C199.671814,279.323669 199.666016,279.323639 199.664749,271.097321 
	C199.660660,244.772675 199.660172,218.448013 199.660553,192.123367 
	C199.660751,179.460876 199.792786,166.796417 199.596863,154.137009 
	C199.532654,149.988541 200.979523,148.515961 205.095901,148.666351 
	C211.751480,148.909470 218.422745,148.771240 225.086655,148.711853 
	C227.406082,148.691193 229.246231,149.140289 230.492950,151.408768 
	C241.000519,170.528320 251.579514,189.608597 262.106934,208.717270 
	C262.567078,209.552521 262.734558,210.549011 263.182098,211.906204 
	C254.250824,211.906204 245.695084,212.015137 237.145889,211.826920 
	C235.098236,211.781860 234.603500,209.398529 233.648376,207.887787 
	C232.504639,206.078751 231.445618,204.216141 230.329224,202.342056 
	C229.901749,202.700256 229.490509,202.876236 229.474884,203.082214 
	C228.810379,211.849182 228.815338,212.012329 220.066055,212.045364 
	C215.820862,212.061386 214.209518,213.494339 214.262192,217.896103 
	C214.461548,234.554886 214.334915,251.217499 214.354340,267.878632 
	C214.355850,269.183868 214.090485,270.556671 215.057739,271.978668 
	C218.852356,272.949799 222.352859,271.089020 225.097275,269.077606 
	C235.508652,261.446991 247.006073,261.690674 258.860413,263.388458 
	C260.340851,263.600464 261.834686,263.718903 263.661102,263.940308 
	C263.999878,263.999969 264.006104,264.005188 264.006104,264.005188 
z"/>
<path fill="#000000" opacity="1.000000" stroke="none" 
	d="
M263.996155,263.996948 
	C259.947418,254.341858 253.884537,245.730087 249.593872,236.692398 
	C260.293427,236.692398 270.933899,236.714844 281.574188,236.683929 
	C287.872314,236.665619 288.266876,236.320541 288.583099,229.913727 
	C288.755280,226.424820 288.670410,222.921066 288.637146,219.424637 
	C288.581726,213.603470 287.491333,212.207993 281.656769,212.264481 
	C271.864319,212.359268 272.759888,212.478485 272.739441,202.764313 
	C272.706482,187.110977 272.722656,171.457504 272.741669,155.804108 
	C272.750214,148.749924 272.775970,148.743149 280.043854,148.733459 
	C286.038757,148.725464 292.035889,148.835602 298.027618,148.698746 
	C301.283508,148.624359 302.370972,149.984268 302.366211,153.154877 
	C302.305023,193.787003 302.303955,234.419266 302.368561,275.051392 
	C302.373718,278.288177 301.170868,279.547943 297.964081,279.401031 
	C294.361542,279.235962 290.745636,279.363037 286.642334,279.363037 
	C286.642334,274.868408 286.605713,271.078796 286.654724,267.290283 
	C286.689392,264.610382 285.548065,263.251709 282.770111,263.359802 
	C276.791077,263.592529 270.783875,262.870422 264.416748,263.947266 
	C264.006104,264.005188 263.999878,263.999969 263.996155,263.996948 
z"/>
<path fill="#000000" opacity="1.000000" stroke="none" 
	d="
M134.726959,357.680359 
	C138.435440,356.309174 141.934525,355.592255 144.239868,359.284485 
	C146.153046,362.348602 142.006897,365.446869 144.463242,368.724060 
	C141.341324,368.285034 138.728165,367.917542 136.115021,367.550079 
	C135.828400,368.028687 135.541779,368.507324 135.255142,368.985962 
	C133.036575,365.600433 133.889908,361.800262 134.726959,357.680359 
z"/>
<path fill="#000000" opacity="1.000000" stroke="none" 
	d="
M243.800995,365.694153 
	C242.925690,365.052246 242.261169,363.444397 241.512711,365.206848 
	C241.028198,366.347748 241.683167,367.895142 240.363068,368.815704 
	C238.056732,367.116608 236.957733,359.286255 238.805801,357.547180 
	C240.081284,356.346863 241.245544,356.990906 242.288834,357.957855 
	C243.570129,359.145355 243.909195,361.245453 245.924026,361.787048 
	C247.357040,360.567078 245.959198,358.408905 247.505676,357.293640 
	C250.218613,359.405334 250.497116,362.541779 248.518982,369.005341 
	C245.857803,369.695099 245.376068,367.146790 243.800995,365.694153 
z"/>
<path fill="#000000" opacity="1.000000" stroke="none" 
	d="
M182.201630,357.212952 
	C183.917908,358.804779 185.272446,360.248474 186.634201,361.699860 
	C188.605774,360.672241 186.709946,357.805847 189.730560,357.002563 
	C192.089432,360.440216 191.457214,364.339142 190.460251,367.975739 
	C189.915390,369.963165 188.092300,369.152954 186.883972,367.980194 
	C185.621857,366.755249 184.985489,364.870514 183.095764,364.285492 
	C181.608398,365.450409 183.077835,367.733582 181.288483,368.684998 
	C178.710114,365.270355 178.996872,359.295135 182.201630,357.212952 
z"/>
<path fill="#000000" opacity="1.000000" stroke="none" 
	d="
M316.430542,367.487976 
	C311.192932,370.356384 307.352509,369.721802 305.523010,365.928009 
	C303.781250,362.316223 304.907898,359.430542 308.244385,357.516449 
	C311.163483,355.841736 314.119843,356.339111 316.419861,358.690735 
	C318.962799,361.290710 318.985046,364.269653 316.430542,367.487976 
M311.587341,366.417908 
	C314.048553,366.093689 315.007233,364.632660 314.543610,362.281219 
	C314.263947,360.862885 313.217010,360.005432 311.828522,359.751495 
	C310.316528,359.474945 309.235962,360.322632 308.718201,361.619904 
	C307.822937,363.863007 308.691467,365.432037 311.587341,366.417908 
z"/>
<path fill="#000000" opacity="1.000000" stroke="none" 
	d="
M340.551575,368.104614 
	C335.923492,370.546661 336.184235,364.495270 333.033905,364.281281 
	C331.564453,365.337280 333.068268,367.639587 330.525635,369.020294 
	C328.976929,365.010376 329.693115,361.204620 330.048065,357.277771 
	C333.909088,356.683960 334.223450,360.574249 336.716461,361.567078 
	C338.682465,360.824615 336.774078,357.962769 339.565948,357.006317 
	C342.392914,360.197174 340.870667,364.103119 340.551575,368.104614 
z"/>
<path fill="#000000" opacity="1.000000" stroke="none" 
	d="
M204.893860,357.032074 
	C206.030121,356.699677 206.842758,356.426727 207.649139,356.444122 
	C209.162201,356.476807 210.804703,356.661224 211.269852,358.422516 
	C211.876389,360.719147 209.156418,359.832886 208.452225,361.049377 
	C209.986115,362.780029 213.162918,363.601410 211.816223,366.876160 
	C210.907593,369.085663 208.956741,369.435516 206.865372,369.338013 
	C204.698364,369.236969 202.531326,369.077026 202.563110,366.223114 
	C204.097717,364.457153 205.600449,366.395203 207.424698,365.505554 
	C204.355164,363.410675 199.995132,361.565674 204.893860,357.032074 
z"/>
<path fill="#000000" opacity="1.000000" stroke="none" 
	d="
M383.702332,369.198181 
	C376.971832,369.124054 373.674866,365.640411 375.487732,360.958923 
	C376.646820,357.965759 378.960571,356.560059 382.122131,356.702423 
	C385.302246,356.845612 387.564575,358.411835 388.149048,361.632629 
	C388.775665,365.085663 387.891754,367.941742 383.702332,369.198181 
M381.554504,366.546814 
	C383.841248,366.356567 385.326508,365.159363 385.287140,362.839874 
	C385.259979,361.241302 383.988892,360.203247 382.472717,359.776581 
	C380.759766,359.294434 379.586792,360.275238 378.895508,361.674011 
	C377.783295,363.924652 378.845856,365.418640 381.554504,366.546814 
z"/>
<path fill="#000000" opacity="1.000000" stroke="none" 
	d="
M284.583130,368.940369 
	C281.851746,364.998993 283.059814,361.133698 283.712097,357.439056 
	C286.484467,356.695068 285.845184,359.551117 287.301819,359.830841 
	C289.371979,359.165680 290.261139,355.858978 293.932953,357.627899 
	C289.036987,361.219116 291.429688,364.896545 294.081635,368.336548 
	C290.465790,370.429199 289.951599,366.520325 287.818085,366.085693 
	C285.952972,366.082397 286.683167,368.778168 284.583130,368.940369 
z"/>
<path fill="#000000" opacity="1.000000" stroke="none" 
	d="
M156.873398,364.762878 
	C159.066162,362.194885 158.276947,357.007202 161.974075,357.221497 
	C165.959198,357.452484 165.376572,362.679657 167.284363,365.423798 
	C167.871017,366.267639 168.430115,367.502594 167.294037,368.998230 
	C163.851532,367.443451 160.154770,365.677612 157.114883,369.477325 
	C154.878967,367.650635 156.408951,366.385101 156.873398,364.762878 
z"/>
<path fill="#000000" opacity="1.000000" stroke="none" 
	d="
M261.854919,366.738464 
	C261.769287,365.116302 261.718231,363.954803 261.714050,362.793091 
	C261.690613,356.319885 264.470276,354.827881 270.800537,357.957581 
	C270.209412,360.277863 267.596283,359.185181 266.372375,360.613220 
	C267.101410,362.626251 270.688049,360.142487 270.687347,363.292267 
	C269.845703,365.494446 267.124359,363.453705 265.994873,365.349701 
	C267.073517,367.409576 270.501740,365.132111 271.274170,368.855927 
	C267.927765,368.942474 264.642609,371.189209 261.854919,366.738464 
z"/>
<path fill="#000000" opacity="1.000000" stroke="none" 
	d="
M352.979156,360.528198 
	C357.508789,355.435272 361.150146,355.308746 363.341064,360.130890 
	C360.590393,360.290863 357.195190,358.423187 355.756805,362.348938 
	C355.185760,363.907562 355.855865,364.946960 357.068939,365.687958 
	C360.046570,367.506866 360.895752,364.185883 362.790161,363.115601 
	C364.879791,364.136993 364.471710,365.876221 363.754395,367.280304 
	C362.574341,369.590271 360.211639,369.384430 358.060364,369.286407 
	C355.465088,369.168152 353.639221,367.751923 352.942566,365.330963 
	C352.549683,363.965698 352.848938,362.401245 352.979156,360.528198 
z"/>
<path fill="#000000" opacity="1.000000" stroke="none" 
	d="
M120.715141,361.510010 
	C122.830559,362.786072 122.936096,364.171417 120.740494,364.611145 
	C118.201523,365.119690 117.506966,367.160309 115.874916,369.466583 
	C112.890053,365.665131 113.186897,361.388153 114.741821,358.266174 
	C116.247757,355.242462 119.999924,356.269714 123.047890,357.495514 
	C122.479820,360.160675 119.825996,359.153015 118.475777,360.657654 
	C119.265396,360.959839 119.851936,361.184296 120.715141,361.510010 
z"/>

</svg>